<?xml version="1.0" encoding="UTF-8" standalone="no"?>
<!DOCTYPE svg PUBLIC "-//W3C//DTD SVG 1.1//EN" "http://www.w3.org/Graphics/SVG/1.1/DTD/svg11.dtd">
<svg version="1.1" xmlns="http://www.w3.org/2000/svg" xmlns:xlink="http://www.w3.org/1999/xlink" preserveAspectRatio="xMidYMid meet" viewBox="0 0 640 640" width="512" height="512"><defs><path d="M135.8 95.47C113.71 95.47 94.87 111.06 87.87 132.77C83.35 132.77 47.12 132.77 42.59 132.77C28.55 132.77 17.16 145.29 17.16 160.74C17.16 192.44 17.16 446.06 17.16 477.77C17.16 513.81 43.72 543.03 76.48 543.03C129.02 543.03 549.35 543.03 601.89 543.03C615.93 543.03 627.31 530.51 627.31 515.06C627.31 475.9 627.31 162.61 627.31 123.45C627.31 108 615.93 95.47 601.89 95.47C508.67 95.47 182.41 95.47 135.8 95.47ZM68.01 188.71L84.96 188.71C84.96 362.15 84.96 458.5 84.96 477.77C84.96 482.91 81.16 487.09 76.48 487.09C71.81 487.09 68.01 482.91 68.01 477.77C68.01 439.23 68.01 342.88 68.01 188.71ZM135.19 487.09C135.59 484.04 135.8 480.93 135.8 477.77C135.8 456.01 135.8 347.23 135.8 151.42L576.47 151.42L576.47 487.09C311.7 487.09 164.61 487.09 135.19 487.09ZM343.42 347.23C350.44 347.23 356.14 340.96 356.14 333.24C356.14 322.05 356.14 232.54 356.14 221.35C356.14 213.63 350.44 207.36 343.42 207.36C329.02 207.36 213.77 207.36 199.36 207.36C192.34 207.36 186.65 213.63 186.65 221.35C186.65 232.54 186.65 322.05 186.65 333.24C186.65 340.96 192.34 347.23 199.36 347.23C228.17 347.23 329.02 347.23 343.42 347.23ZM313.76 253.98L313.76 300.61L229.02 300.61L229.02 253.98L313.76 253.98ZM186.65 389.19C186.65 381.46 192.34 375.2 199.36 375.2C213.77 375.2 329.02 375.2 343.42 375.2C350.44 375.2 356.14 381.46 356.14 389.19C356.14 391.98 356.14 414.36 356.14 417.16C356.14 424.88 350.44 431.14 343.42 431.14C329.02 431.14 213.77 431.14 199.36 431.14C192.34 431.14 186.65 424.88 186.65 417.16C186.65 411.56 186.65 391.98 186.65 389.19ZM390.03 389.19C390.03 381.46 395.72 375.2 402.74 375.2C413.76 375.2 501.89 375.2 512.91 375.2C519.93 375.2 525.62 381.46 525.62 389.19C525.62 391.98 525.62 414.36 525.62 417.16C525.62 424.88 519.93 431.14 512.91 431.14C501.89 431.14 413.76 431.14 402.74 431.14C395.72 431.14 390.03 424.88 390.03 417.16C390.03 411.56 390.03 391.98 390.03 389.19ZM390.03 221.35C390.03 213.63 395.72 207.36 402.74 207.36C413.76 207.36 501.89 207.36 512.91 207.36C519.93 207.36 525.62 213.63 525.62 221.35C525.62 224.15 525.62 246.52 525.62 249.32C525.62 257.05 519.93 263.31 512.91 263.31C501.89 263.31 413.76 263.31 402.74 263.31C395.72 263.31 390.03 257.05 390.03 249.32C390.03 243.73 390.03 224.15 390.03 221.35ZM390.03 305.27C390.03 297.54 395.72 291.28 402.74 291.28C413.76 291.28 501.89 291.28 512.91 291.28C519.93 291.28 525.62 297.54 525.62 305.27C525.62 308.06 525.62 330.44 525.62 333.24C525.62 340.96 519.93 347.23 512.91 347.23C501.89 347.23 413.76 347.23 402.74 347.23C395.72 347.23 390.03 340.96 390.03 333.24C390.03 327.65 390.03 308.06 390.03 305.27Z" id="dfW7rekg2"></path></defs><g><g><g><use xlink:href="#dfW7rekg2" opacity="1" fill="#000000" fill-opacity="1"></use><g><use xlink:href="#dfW7rekg2" opacity="1" fill-opacity="0" stroke="#000000" stroke-width="1" stroke-opacity="0"></use></g></g></g></g></svg>